<svg width="15" height="16" viewBox="0 0 15 16" fill="none" xmlns="http://www.w3.org/2000/svg">
<path d="M13.9885 13.4342H4.66283M0 2.55426H3.10856H0ZM13.9885 2.55426H6.21711H13.9885ZM0 7.99423H9.32567H0ZM13.9885 7.99423H12.4342H13.9885ZM0 13.4342H1.55428H0Z" stroke="black" stroke-width="1.5" stroke-linecap="round"/>
<path d="M4.66277 4.10856C5.52117 4.10856 6.21705 3.41268 6.21705 2.55428C6.21705 1.69587 5.52117 1 4.66277 1C3.80436 1 3.10849 1.69587 3.10849 2.55428C3.10849 3.41268 3.80436 4.10856 4.66277 4.10856Z" stroke="black" stroke-width="1.5" stroke-linecap="round"/>
<path d="M10.8799 9.54853C11.7383 9.54853 12.4342 8.85265 12.4342 7.99425C12.4342 7.13585 11.7383 6.43997 10.8799 6.43997C10.0215 6.43997 9.32565 7.13585 9.32565 7.99425C9.32565 8.85265 10.0215 9.54853 10.8799 9.54853Z" stroke="black" stroke-width="1.5" stroke-linecap="round"/>
<path d="M3.10854 14.9885C3.96694 14.9885 4.66282 14.2926 4.66282 13.4342C4.66282 12.5758 3.96694 11.8799 3.10854 11.8799C2.25013 11.8799 1.55426 12.5758 1.55426 13.4342C1.55426 14.2926 2.25013 14.9885 3.10854 14.9885Z" stroke="black" stroke-width="1.5" stroke-linecap="round"/>
</svg>
