<svg width="15" height="14" viewBox="0 0 15 14" fill="none" xmlns="http://www.w3.org/2000/svg">
<path d="M7.00492 0C6.57701 0 6.2269 0.350106 6.2269 0.778014V7.00212C6.2269 7.43003 6.57701 7.78014 7.00492 7.78014C7.43283 7.78014 7.78293 7.43003 7.78293 7.00212V0.778014C7.78293 0.350106 7.43283 0 7.00492 0ZM11.0039 2.22512C10.8608 2.36821 10.7798 2.56188 10.7783 2.76424C10.7768 2.96661 10.8551 3.16142 10.9961 3.30656C11.8753 4.24018 12.4199 5.485 12.451 6.86208C12.521 9.84187 10.0547 12.4093 7.07494 12.4404C6.354 12.4517 5.63803 12.3193 4.96879 12.051C4.29955 11.7826 3.69044 11.3837 3.17698 10.8775C2.66353 10.3713 2.25601 9.76789 1.97819 9.10253C1.70036 8.43717 1.55781 7.72316 1.55882 7.00212C1.55882 5.57058 2.11121 4.2713 3.01371 3.29878C3.30157 2.99535 3.30157 2.52076 3.00593 2.22512C2.93282 2.15134 2.84558 2.09306 2.74943 2.05376C2.65329 2.01446 2.5502 1.99496 2.44634 1.99641C2.34248 1.99786 2.23998 2.02024 2.14497 2.06221C2.04996 2.10418 1.96439 2.16488 1.89337 2.24068C0.725802 3.47739 0.0530298 5.0998 0.0027951 6.79984C-0.106127 10.5965 2.98259 13.8798 6.77929 13.9965C10.7472 14.1209 14.007 10.9389 14.007 6.99434C14.007 5.15045 13.2913 3.4855 12.1242 2.24068C11.8286 1.92169 11.3151 1.91391 11.0039 2.22512Z" fill="black"/>
</svg>
