<svg width="11" height="11" viewBox="0 0 11 11" fill="none" xmlns="http://www.w3.org/2000/svg">
<path d="M10.1249 2.5875L8.41244 0.875003C8.18894 0.665063 7.89606 0.544602 7.58952 0.536535C7.28299 0.528469 6.98418 0.633359 6.74994 0.831253L1.12494 6.45625C0.92292 6.65998 0.797132 6.927 0.768691 7.2125L0.499941 9.81875C0.491522 9.91029 0.5034 10.0026 0.53473 10.089C0.566059 10.1754 0.616068 10.2539 0.681191 10.3188C0.739591 10.3767 0.808851 10.4225 0.885 10.4536C0.961148 10.4847 1.04269 10.5005 1.12494 10.5H1.18119L3.78744 10.2625C4.07294 10.2341 4.33996 10.1083 4.54369 9.90625L10.1687 4.28125C10.387 4.05061 10.505 3.74282 10.4968 3.42534C10.4886 3.10785 10.3549 2.80657 10.1249 2.5875ZM7.99994 4.675L6.32494 3L7.54369 1.75L9.24994 3.45625L7.99994 4.675Z" fill="black"/>
</svg>
