<svg width="18" height="18" viewBox="0 0 18 18" fill="none" xmlns="http://www.w3.org/2000/svg">
<path d="M8.0522 1.49193C8.30088 0.836024 9.242 0.836024 9.49146 1.49193L11.1001 5.94804C11.2128 6.24335 11.4996 6.43997 11.8198 6.43997H15.7731C16.5036 6.43997 16.8222 7.34922 16.2479 7.79452L13.4347 10.3257C13.3086 10.4225 13.2165 10.5568 13.1716 10.7093C13.1266 10.8618 13.1311 11.0245 13.1844 11.1743L14.2118 15.5286C14.462 16.228 13.6523 16.8288 13.0399 16.3982L9.21868 13.9736C9.08782 13.8816 8.93177 13.8322 8.77183 13.8322C8.61188 13.8322 8.45583 13.8816 8.32497 13.9736L4.50378 16.3982C3.89217 16.8288 3.08162 16.2273 3.33186 15.5286L4.35923 11.1743C4.41253 11.0245 4.41702 10.8618 4.37206 10.7093C4.32711 10.5568 4.23501 10.4225 4.10899 10.3257L1.29575 7.79452C0.720669 7.34922 1.04085 6.43997 1.76981 6.43997H5.72311C5.87877 6.44049 6.03091 6.39373 6.15941 6.30589C6.28791 6.21805 6.38671 6.09326 6.44274 5.94804L8.05142 1.49193H8.0522Z" stroke="black" stroke-width="1.5" stroke-linecap="round" stroke-linejoin="round"/>
</svg>
