<svg width="12" height="12" viewBox="0 0 12 12" fill="none" xmlns="http://www.w3.org/2000/svg">
<path d="M11.6121 4.03518L8.01478 3.51236L6.40666 0.252203C6.36274 0.162942 6.29048 0.0906833 6.20122 0.0467611C5.97736 -0.0637527 5.70532 0.0283421 5.59339 0.252203L3.98528 3.51236L0.38791 4.03518C0.288731 4.04935 0.198053 4.0961 0.128627 4.16694C0.0446959 4.25321 -0.00155415 4.36927 3.98784e-05 4.48962C0.0016339 4.60997 0.0509416 4.72476 0.137128 4.80877L2.73987 7.34634L2.12496 10.9295C2.11054 11.0129 2.11976 11.0986 2.15159 11.177C2.18341 11.2554 2.23655 11.3233 2.305 11.373C2.37344 11.4227 2.45444 11.4522 2.53882 11.4582C2.6232 11.4643 2.70757 11.4465 2.78238 11.407L6.00003 9.7153L9.21768 11.407C9.30553 11.4538 9.40754 11.4694 9.5053 11.4524C9.75183 11.4098 9.9176 11.1761 9.8751 10.9295L9.26019 7.34634L11.8629 4.80877C11.9338 4.73935 11.9805 4.64867 11.9947 4.54949C12.033 4.30154 11.8601 4.07202 11.6121 4.03518V4.03518Z" fill="#CBCED1" fill-opacity="0.8"/>
</svg>
