<svg width="16" height="18" viewBox="0 0 16 18" fill="none" xmlns="http://www.w3.org/2000/svg">
<path d="M7.78792 8.77139C9.93393 8.77139 11.6736 7.0317 11.6736 4.88569C11.6736 2.73968 9.93393 1 7.78792 1C5.64191 1 3.90222 2.73968 3.90222 4.88569C3.90222 7.0317 5.64191 8.77139 7.78792 8.77139Z" stroke="black" stroke-width="1.5"/>
<path d="M11.6736 10.3257H11.9471C12.5153 10.3258 13.0638 10.5334 13.4897 10.9095C13.9155 11.2856 14.1894 11.8042 14.2599 12.368L14.5637 14.7958C14.5911 15.0145 14.5716 15.2365 14.5065 15.4471C14.4415 15.6577 14.3324 15.8521 14.1865 16.0173C14.0406 16.1825 13.8613 16.3148 13.6604 16.4054C13.4594 16.496 13.2415 16.5428 13.0211 16.5428H2.55462C2.33421 16.5428 2.11631 16.496 1.91538 16.4054C1.71445 16.3148 1.53509 16.1825 1.3892 16.0173C1.24331 15.8521 1.13423 15.6577 1.0692 15.4471C1.00416 15.2365 0.984665 15.0145 1.012 14.7958L1.31508 12.368C1.38556 11.804 1.65968 11.2851 2.08587 10.909C2.51207 10.5329 3.06098 10.3254 3.6294 10.3257H3.90217" stroke="black" stroke-width="1.5" stroke-linecap="round" stroke-linejoin="round"/>
</svg>
