<?xml version="1.0" standalone="no"?>
<!DOCTYPE svg PUBLIC "-//W3C//DTD SVG 20010904//EN"
 "http://www.w3.org/TR/2001/REC-SVG-20010904/DTD/svg10.dtd">
<svg version="1.0" xmlns="http://www.w3.org/2000/svg"
 width="155.000000pt" height="155.000000pt" viewBox="0 0 155.000000 155.000000"
 preserveAspectRatio="xMidYMid meet">
<metadata>
Created by potrace 1.14, written by Peter Selinger 2001-2017
</metadata>
<g transform="translate(0.000000,155.000000) scale(0.100000,-0.100000)"
fill="#000000" stroke="none">
<path d="M295 1140 c-2 -3 -3 -112 -4 -243 l0 -237 100 0 99 0 1 93 c0 82 2
89 12 60 19 -52 39 -65 98 -66 45 0 55 3 74 26 11 15 23 27 25 27 3 0 5 -26 4
-58 0 -31 2 -63 4 -69 3 -9 32 -13 97 -13 l94 0 3 28 c4 30 -16 108 -33 128
-14 17 -22 124 -9 124 5 0 41 -63 80 -140 l70 -140 64 0 65 0 27 58 c19 39 28
76 29 117 1 33 3 63 4 68 0 4 28 35 62 70 55 56 109 136 109 162 0 6 -40 10
-105 10 l-105 -1 -43 -89 -44 -90 -42 90 -42 90 -111 0 -110 0 -82 -94 c-45
-52 -86 -94 -90 -93 -4 0 -42 40 -83 89 -41 48 -77 90 -79 92 -6 7 -135 7
-139 1z"/>
<path d="M89 623 c-1 -5 -3 -24 -5 -43 -2 -19 -6 -43 -8 -52 -3 -13 2 -18 15
-18 11 0 19 7 19 18 1 16 1 16 11 0 5 -10 15 -18 21 -18 6 0 17 8 24 18 13 16
13 16 14 0 0 -10 7 -18 16 -18 12 0 14 10 12 51 -5 79 -39 93 -53 22 l-8 -38
-14 43 c-8 23 -21 42 -29 42 -8 0 -15 -3 -15 -7z"/>
<path d="M222 571 l-1 -59 45 -4 c37 -3 44 0 44 15 0 10 -6 17 -12 16 -23 -3
-38 1 -38 10 0 4 11 7 23 6 15 -2 24 2 24 11 0 12 -17 19 -39 15 -5 0 -8 4 -8
9 0 6 11 10 25 10 16 0 25 6 25 15 0 11 -11 15 -43 15 l-43 0 -2 -59z"/>
<path d="M320 570 c0 -53 2 -60 19 -60 14 0 19 6 16 20 -2 12 2 20 10 20 7 0
17 -9 20 -20 4 -11 15 -20 26 -20 16 0 18 3 9 19 -5 11 -7 34 -3 51 7 38 -6
50 -59 50 l-38 0 0 -60z m70 20 c0 -5 -7 -10 -15 -10 -8 0 -15 5 -15 10 0 6 7
10 15 10 8 0 15 -4 15 -10z"/>
<path d="M446 614 c-23 -22 -21 -81 3 -94 28 -15 67 -12 81 5 10 12 9 16 -4
21 -9 3 -23 1 -30 -6 -12 -9 -17 -7 -25 9 -17 31 -3 53 29 46 34 -7 48 10 21
24 -28 15 -57 13 -75 -5z"/>
<path d="M550 587 c0 -55 17 -78 57 -79 48 -1 63 17 63 74 0 42 -3 49 -17 46
-13 -2 -18 -13 -19 -41 0 -21 -5 -42 -10 -47 -18 -18 -36 7 -36 49 1 34 -3 41
-19 41 -16 0 -19 -7 -19 -43z"/>
<path d="M683 570 c0 -52 3 -60 18 -60 14 0 19 8 19 28 l1 27 22 -27 c31 -39
62 -37 38 1 -5 8 -6 24 -1 36 13 35 -6 55 -54 55 l-43 0 0 -60z m67 20 c0 -5
-4 -10 -9 -10 -6 0 -13 5 -16 10 -3 6 1 10 9 10 9 0 16 -4 16 -10z"/>
<path d="M790 625 c0 -3 7 -17 17 -31 9 -14 17 -37 18 -52 2 -38 35 -44 35 -6
0 14 9 42 21 60 l21 34 -21 0 c-11 0 -24 -8 -30 -17 -9 -17 -10 -17 -16 0 -6
15 -45 25 -45 12z"/>
<path d="M931 571 c17 -50 25 -61 43 -61 18 0 26 10 40 56 10 31 15 58 12 61
-12 13 -35 -8 -41 -39 l-8 -33 -10 25 c-6 14 -11 30 -11 35 -1 6 -11 11 -23
13 l-22 3 20 -60z"/>
<path d="M1040 570 c0 -53 2 -60 20 -60 18 0 20 7 20 60 0 53 -2 60 -20 60
-18 0 -20 -7 -20 -60z"/>
<path d="M1100 615 c-14 -17 -4 -55 16 -56 27 -3 32 -4 40 -11 4 -5 -7 -8 -24
-8 -17 0 -33 -4 -36 -9 -14 -22 75 -29 92 -8 18 21 3 57 -24 57 -12 0 -26 5
-29 10 -4 6 7 10 24 10 33 0 41 14 15 24 -27 10 -61 7 -74 -9z"/>
<path d="M1210 570 c0 -53 2 -60 20 -60 15 0 20 7 21 28 0 15 3 20 6 12 17
-47 81 -54 113 -13 l22 28 -7 -28 c-6 -23 -4 -27 13 -27 15 0 22 8 24 28 l4
27 14 -28 c9 -19 20 -27 34 -25 17 3 20 10 19 51 -2 67 -1 67 -18 67 -15 0
-18 -7 -18 -42 0 -25 -4 -22 -22 12 -10 19 -23 30 -36 30 -18 0 -20 -4 -14
-27 l7 -28 -22 28 c-34 43 -89 36 -109 -13 -9 -24 -10 -24 -10 8 -1 25 -5 32
-21 32 -18 0 -20 -7 -20 -60z m130 0 c0 -23 -5 -30 -19 -30 -25 0 -32 11 -24
38 3 13 13 22 24 22 14 0 19 -7 19 -30z"/>
</g>
</svg>
